<svg xmlns="http://www.w3.org/2000/svg" xmlns:xlink="http://www.w3.org/1999/xlink" width="130.034" height="90.312" viewBox="0 0 130.034 90.312">
  <defs>
    <clipPath id="clip-path">
      <path id="Path_19493" data-name="Path 19493" d="M615.315,130.618H652V119.674H615.315C613.884,119.674,613.884,130.618,615.315,130.618Z" transform="translate(-614.242 -119.674)" fill="#fff"/>
    </clipPath>
    <clipPath id="clip-path-2">
      <path id="Path_19509" data-name="Path 19509" d="M652.9,135.272H605.189V146.5H652.9C654.372,146.5,654.372,135.272,652.9,135.272Z" transform="translate(-605.189 -135.272)" fill="#fff"/>
    </clipPath>
  </defs>
  <g id="Group_6983" data-name="Group 6983" transform="translate(0)">
    <g id="Group_4189" data-name="Group 4189" transform="translate(32.706)">
      <g id="Group_4188" data-name="Group 4188" transform="translate(0)">
        <path id="Path_19473" data-name="Path 19473" d="M599.78,116.951c-2.584-.383-4.58-5.112-2.787-7.954s2.787-3.711,1.291-6.553-5.834-5.085-4.487-8.674,5.684-3.739,4.636-7.03-5.255-4.62-3.2-9.768c1.86-4.648,6.1-2.272,6.1-7.644,0-4.576-6.508-9.143-.805-12.5,4.721-2.78,7.837,4.585,7.778,8.625-.1,7.025-5.527,8.936-3.442,13.36,1.038,2.2,5.115,3.575,4.217,9.109s-6.16,4.949-6.16,8.389,6.377,5.255,5.85,11.754C608.306,113.8,607.428,118.087,599.78,116.951Z" transform="translate(-593.542 -56.216)" fill="#759e3e"/>
      </g>
    </g>
    <g id="Group_4191" data-name="Group 4191" transform="translate(37.762 4.633)">
      <g id="Group_4190" data-name="Group 4190" transform="translate(0)">
        <path id="Path_19474" data-name="Path 19474" d="M601.919,118.151h-.359a15.081,15.081,0,0,1,1.549-4.373,29.132,29.132,0,0,0,1.453-3.629c1.038-3.8-1.56-7.035-3.458-9.393a10.163,10.163,0,0,1-1.914-2.908c-.751-2.691.9-4.182,2.5-5.623a7.518,7.518,0,0,0,2.662-3.559c.518-2.124-.43-3.252-1.526-4.557a8.411,8.411,0,0,1-2.4-5.1c-.125-1.526.768-2.739,1.8-4.144a12.713,12.713,0,0,0,2.848-6.123,10.568,10.568,0,0,0-1.772-7.3l.285-.219a10.943,10.943,0,0,1,1.844,7.572,13,13,0,0,1-2.915,6.287c-.991,1.347-1.846,2.51-1.733,3.9a8.1,8.1,0,0,0,2.321,4.894c1.111,1.323,2.161,2.573,1.6,4.874a7.779,7.779,0,0,1-2.77,3.741c-1.588,1.431-3.088,2.782-2.4,5.259a10.077,10.077,0,0,0,1.848,2.779c1.946,2.418,4.611,5.731,3.524,9.713a29.093,29.093,0,0,1-1.471,3.681A15.462,15.462,0,0,0,601.919,118.151Z" transform="translate(-599.004 -61.222)" fill="#fff"/>
      </g>
    </g>
    <g id="Group_4193" data-name="Group 4193" transform="translate(41.544 4.085)">
      <g id="Group_4192" data-name="Group 4192" transform="translate(0)">
        <path id="Path_19475" data-name="Path 19475" d="M604.407,61.288a.659.659,0,1,1-.658-.659A.659.659,0,0,1,604.407,61.288Z" transform="translate(-603.09 -60.629)" fill="#fff"/>
      </g>
    </g>
    <g id="Group_4195" data-name="Group 4195" transform="translate(11.907 25.245)">
      <g id="Group_4194" data-name="Group 4194" transform="translate(0)">
        <path id="Path_19476" data-name="Path 19476" d="M596.895,121.262c-1.812.865-5.118-1.293-5.2-3.876s.183-3.563-1.992-4.733-5.9-.736-6.589-3.6,2.019-4.827-.064-6.476-5.336-.688-6.235-4.855c-.812-3.764,2.91-4.069.6-7.494-1.966-2.918-8.079-3.034-5.885-7.626,1.817-3.8,6.968-.443,8.666,2.159,2.953,4.524.315,8.074,3.546,10,1.609.958,4.8.082,6.6,4s-1.8,5.8-.323,8,6.324.611,8.782,4.982C600.978,115.59,602.26,118.7,596.895,121.262Z" transform="translate(-571.07 -80.889)" fill="#97bc5c"/>
      </g>
    </g>
    <g id="Group_4197" data-name="Group 4197" transform="translate(15.695 28.43)">
      <g id="Group_4196" data-name="Group 4196" transform="translate(0)">
        <path id="Path_19477" data-name="Path 19477" d="M598.4,121.472a11.6,11.6,0,0,1-.9-3.47,22.209,22.209,0,0,0-.631-2.933c-.966-2.853-3.876-3.754-6.214-4.479a7.789,7.789,0,0,1-2.484-1.039c-1.655-1.411-1.238-3.084-.834-4.7a5.751,5.751,0,0,0,.169-3.388c-.575-1.558-1.6-1.852-2.9-2.225A6.508,6.508,0,0,1,580.856,97c-.744-.932-.7-2.1-.64-3.445a9.737,9.737,0,0,0-.81-5.107,8.1,8.1,0,0,0-4.244-3.876l.113-.341a8.288,8.288,0,0,1,4.454,4.058,10.182,10.182,0,0,1,.848,5.281c-.057,1.329-.1,2.379.561,3.205a6.194,6.194,0,0,0,3.563,2.11c1.287.369,2.5.718,3.141,2.446a6.008,6.008,0,0,1-.157,3.6c-.394,1.582-.767,3.077.718,4.342a7.686,7.686,0,0,0,2.357.97c2.289.709,5.423,1.681,6.448,4.706a22.41,22.41,0,0,1,.645,2.988,11.881,11.881,0,0,0,.841,3.33Z" transform="translate(-575.162 -84.234)" fill="#fff"/>
      </g>
    </g>
    <g id="Group_4199" data-name="Group 4199" transform="translate(15.245 27.1)">
      <g id="Group_4198" data-name="Group 4198" transform="translate(0)">
        <path id="Path_19478" data-name="Path 19478" d="M575.6,84.095a.507.507,0,1,1-.7-.138A.507.507,0,0,1,575.6,84.095Z" transform="translate(-574.676 -83.871)" fill="#fff"/>
      </g>
    </g>
    <g id="Group_4201" data-name="Group 4201" transform="translate(0 50.95)">
      <g id="Group_4200" data-name="Group 4200" transform="translate(0)">
        <path id="Path_19479" data-name="Path 19479" d="M595.854,126.288c-.87,1.531-4.328,1.635-5.677-.184s-1.654-2.654-3.8-2.405-4.615,2.429-6.544.71-.967-4.482-3.289-4.624-4.182,2.178-6.917-.368c-2.469-2.3.056-4.383-3.321-5.69-2.876-1.113-7.329,1.865-8.051-2.535-.6-3.645,4.789-3.81,7.313-2.791,4.39,1.774,4.271,5.648,7.559,5.414,1.637-.117,3.491-2.343,6.751-.433s1.611,5.076,3.773,5.912,4.854-2.729,8.811-.816C595.947,120.163,598.429,121.758,595.854,126.288Z" transform="translate(-558.204 -107.86)" fill="#759e3e"/>
      </g>
    </g>
    <g id="Group_4203" data-name="Group 4203" transform="translate(3.202 53.286)">
      <g id="Group_4202" data-name="Group 4202" transform="translate(0)">
        <path id="Path_19480" data-name="Path 19480" d="M596.943,125.872a10.161,10.161,0,0,1-2.392-2.05,19.33,19.33,0,0,0-1.921-1.791c-2.114-1.56-4.652-.752-6.691-.1a6.857,6.857,0,0,1-2.318.5c-1.91-.186-2.452-1.606-2.974-2.978a5.023,5.023,0,0,0-1.569-2.511c-1.184-.826-2.066-.524-3.182-.142a5.725,5.725,0,0,1-3.824.271c-1.011-.3-1.56-1.164-2.2-2.166a8.506,8.506,0,0,0-3.134-3.26,7.041,7.041,0,0,0-4.976-.658l-.1-.345a7.3,7.3,0,0,1,5.252.69,8.926,8.926,0,0,1,3.263,3.38c.624.979,1.116,1.753,2,2.014a5.351,5.351,0,0,0,3.6-.267c1.117-.382,2.172-.742,3.505.187a5.29,5.29,0,0,1,1.7,2.678c.506,1.329.984,2.584,2.673,2.749a6.7,6.7,0,0,0,2.172-.482c2.006-.639,4.753-1.511,7.014.156a19.6,19.6,0,0,1,1.964,1.828,10.449,10.449,0,0,0,2.266,1.968Z" transform="translate(-561.664 -110.426)" fill="#fff"/>
      </g>
    </g>
    <g id="Group_4205" data-name="Group 4205" transform="translate(2.809 52.733)">
      <g id="Group_4204" data-name="Group 4204" transform="translate(0)">
        <path id="Path_19481" data-name="Path 19481" d="M561.845,110.391a.444.444,0,1,1-.576.254A.443.443,0,0,1,561.845,110.391Z" transform="translate(-561.239 -110.36)" fill="#fff"/>
      </g>
    </g>
    <g id="Group_4207" data-name="Group 4207" transform="translate(35.125 64.117)">
      <g id="Group_4206" data-name="Group 4206" transform="translate(0)">
        <path id="Path_19482" data-name="Path 19482" d="M605.935,143.464h-7.548l-2.232-18.09s.313-4.7,6.612-4.432a5.352,5.352,0,0,1,5.4,4.432Z" transform="translate(-596.155 -120.931)" fill="#f7a60f"/>
      </g>
    </g>
    <g id="Group_4223" data-name="Group 4223" transform="translate(86.721 26.706)">
      <g id="Group_4210" data-name="Group 4210">
        <g id="Group_4209" data-name="Group 4209">
          <g id="Group_4208" data-name="Group 4208">
            <path id="Path_19483" data-name="Path 19483" d="M653.944,133.057c-1.8-4.856-3.166-12.749-.719-17.807,2.7-5.576,7.527-5.005,8.274-9.173,1.26-7.014-1.619-9.172-3.057-14.568-1.066-4,.2-10.569,6.115-10.972,7.914-.54,6.31,7.28,12.411,7.015,4.137-.18,12.471-8.943,17.086-.719,5.756,10.252-11.716,11.413-12.589,13.669-2.158,5.576,6.9-.575,5.936,6.475-.54,3.957-10.612,2.878-10.433,8.454.145,4.5,0,8.633-6.475,14.389s-9.173,5.4-9.173,5.4Z" transform="translate(-651.902 -80.51)" fill="#97bc5c"/>
          </g>
        </g>
      </g>
      <g id="Group_4212" data-name="Group 4212" transform="translate(5.197 8.093)">
        <g id="Group_4211" data-name="Group 4211">
          <path id="Path_19484" data-name="Path 19484" d="M657.848,137.161l-.331-.14a31.7,31.7,0,0,1,2.155-3.407c3.173-4.706,9.08-13.467,8.794-18.657-.381-6.915,2.439-16.433,8.418-20.452A38.254,38.254,0,0,1,689.1,89.254l.071.353a37.816,37.816,0,0,0-12.091,5.2c-5.87,3.944-8.637,13.317-8.261,20.134.293,5.311-5.433,13.8-8.854,18.877A32.709,32.709,0,0,0,657.848,137.161Z" transform="translate(-657.516 -89.254)" fill="#fff"/>
        </g>
      </g>
      <g id="Group_4214" data-name="Group 4214" transform="translate(4.85 5.277)">
        <g id="Group_4213" data-name="Group 4213" transform="translate(0)">
          <path id="Path_19485" data-name="Path 19485" d="M657.234,134.387a54.2,54.2,0,0,1,.33-10.047c.516-5.183,2-7.441,4.053-10.567.686-1.043,1.464-2.227,2.277-3.641,5.975-10.386,2.817-19.6,1.47-23.533l-.092-.27.341-.117.093.271c1.363,3.98,4.557,13.3-1.5,23.827-.818,1.424-1.6,2.612-2.288,3.661-2.026,3.082-3.489,5.309-4,10.405a53.924,53.924,0,0,0-.328,9.969Z" transform="translate(-657.141 -86.212)" fill="#fff"/>
        </g>
      </g>
      <g id="Group_4216" data-name="Group 4216" transform="translate(7.348 24.157)">
        <g id="Group_4215" data-name="Group 4215" transform="translate(0)">
          <path id="Path_19486" data-name="Path 19486" d="M660.159,138.629l-.319-.165a25.248,25.248,0,0,1,7.082-8.906c.257-.216.524-.434.792-.654,3.267-2.687,6.97-5.732,5.984-11.06-.893-4.826.005-8.6,2.673-11.234l.253.256c-2.578,2.54-3.442,6.211-2.573,10.912,1.026,5.537-2.929,8.79-6.108,11.4-.268.22-.533.438-.79.653A24.928,24.928,0,0,0,660.159,138.629Z" transform="translate(-659.84 -106.61)" fill="#fff"/>
        </g>
      </g>
      <g id="Group_4218" data-name="Group 4218" transform="translate(12.428 4.681)">
        <g id="Group_4217" data-name="Group 4217" transform="translate(0)">
          <path id="Path_19487" data-name="Path 19487" d="M666.8,86.631a.766.766,0,1,1-.409-1A.766.766,0,0,1,666.8,86.631Z" transform="translate(-665.33 -85.568)" fill="#fff"/>
        </g>
      </g>
      <g id="Group_4220" data-name="Group 4220" transform="translate(36.054 7.503)">
        <g id="Group_4219" data-name="Group 4219" transform="translate(0)">
          <path id="Path_19488" data-name="Path 19488" d="M692.327,89.68a.765.765,0,1,1-.408-1A.764.764,0,0,1,692.327,89.68Z" transform="translate(-690.856 -88.617)" fill="#fff"/>
        </g>
      </g>
      <g id="Group_4222" data-name="Group 4222" transform="translate(23.194 23.408)">
        <g id="Group_4221" data-name="Group 4221" transform="translate(0)">
          <path id="Path_19489" data-name="Path 19489" d="M678.433,106.863a.766.766,0,1,1-.41-1A.766.766,0,0,1,678.433,106.863Z" transform="translate(-676.961 -105.801)" fill="#fff"/>
        </g>
      </g>
    </g>
    <g id="Group_4225" data-name="Group 4225" transform="translate(89.031 76.149)">
      <g id="Group_4224" data-name="Group 4224">
        <path id="Path_19490" data-name="Path 19490" d="M654.4,140.272a6.342,6.342,0,1,1,6.342,6.342A6.341,6.341,0,0,1,654.4,140.272Z" transform="translate(-654.397 -133.931)" fill="#fdd246"/>
      </g>
    </g>
    <g id="Group_4241" data-name="Group 4241" transform="translate(49.003 60.516)">
      <g id="Group_4227" data-name="Group 4227">
        <g id="Group_4226" data-name="Group 4226">
          <path id="Path_19491" data-name="Path 19491" d="M614.523,132.135h37.3V117.891h-37.3c-1.863,0-3.374,2.187-3.374,4.884v4.476C611.149,129.949,612.66,132.135,614.523,132.135Z" transform="translate(-611.149 -117.891)" fill="#3d71e4"/>
        </g>
      </g>
      <g id="Group_4240" data-name="Group 4240" transform="translate(2.862 1.65)">
        <path id="Path_19492" data-name="Path 19492" d="M615.315,130.618H652V119.674H615.315C613.884,119.674,613.884,130.618,615.315,130.618Z" transform="translate(-614.242 -119.674)" fill="#fff"/>
        <g id="Group_4239" data-name="Group 4239" clip-path="url(#clip-path)">
          <g id="Group_4238" data-name="Group 4238" transform="translate(-1.081 1.402)">
            <g id="Group_4229" data-name="Group 4229" transform="translate(0 7.667)">
              <g id="Group_4228" data-name="Group 4228">
                <rect id="Rectangle_934" data-name="Rectangle 934" width="39.546" height="0.575" fill="#b3e3ef"/>
              </g>
            </g>
            <g id="Group_4231" data-name="Group 4231" transform="translate(0 5.75)">
              <g id="Group_4230" data-name="Group 4230">
                <rect id="Rectangle_935" data-name="Rectangle 935" width="39.546" height="0.575" fill="#b3e3ef"/>
              </g>
            </g>
            <g id="Group_4233" data-name="Group 4233" transform="translate(0 3.833)">
              <g id="Group_4232" data-name="Group 4232">
                <rect id="Rectangle_936" data-name="Rectangle 936" width="39.546" height="0.575" fill="#b3e3ef"/>
              </g>
            </g>
            <g id="Group_4235" data-name="Group 4235" transform="translate(0 1.917)">
              <g id="Group_4234" data-name="Group 4234">
                <rect id="Rectangle_937" data-name="Rectangle 937" width="39.546" height="0.575" fill="#b3e3ef"/>
              </g>
            </g>
            <g id="Group_4237" data-name="Group 4237">
              <g id="Group_4236" data-name="Group 4236">
                <rect id="Rectangle_938" data-name="Rectangle 938" width="39.546" height="0.575" fill="#b3e3ef"/>
              </g>
            </g>
          </g>
        </g>
      </g>
    </g>
    <g id="Group_4243" data-name="Group 4243" transform="translate(62.029 59.161)">
      <g id="Group_4242" data-name="Group 4242" transform="translate(0)">
        <path id="Path_19494" data-name="Path 19494" d="M626.538,118.116s-2.384,3.375-.733,5.4,15.13.437,15.681-1.813-.826-4.937-.826-4.937Z" transform="translate(-625.223 -116.766)" fill="#9b9b9b"/>
      </g>
    </g>
    <g id="Group_4245" data-name="Group 4245" transform="translate(62.55 58.422)">
      <g id="Group_4244" data-name="Group 4244" transform="translate(0)">
        <rect id="Rectangle_939" data-name="Rectangle 939" width="23.628" height="1.732" fill="#0c5c9b"/>
      </g>
    </g>
    <g id="Group_4272" data-name="Group 4272" transform="translate(51.363 20.11)">
      <g id="Group_4247" data-name="Group 4247" transform="translate(2.106 10.506)">
        <g id="Group_4246" data-name="Group 4246">
          <path id="Path_19495" data-name="Path 19495" d="M623.189,86.6c-2.568.367-8.712,14.795-6.878,18.1s11.922,7.154,11.922,7.154l-.55-5.687s-6.908-2.934-6.359-4.768,4.525-8.682,4.525-8.682Z" transform="translate(-615.974 -86.597)" fill="#62c1c5"/>
        </g>
      </g>
      <g id="Group_4249" data-name="Group 4249" transform="translate(21.474 10.506)">
        <g id="Group_4248" data-name="Group 4248">
          <path id="Path_19496" data-name="Path 19496" d="M641.94,86.6c2.568.367,8.717,14.795,6.882,18.1s-11.922,7.154-11.922,7.154l.551-5.687s6.908-2.934,6.358-4.768-4.523-8.682-4.523-8.682Z" transform="translate(-636.9 -86.597)" fill="#62c1c5"/>
        </g>
      </g>
      <g id="Group_4251" data-name="Group 4251" transform="translate(7.144 10.091)">
        <g id="Group_4250" data-name="Group 4250">
          <path id="Path_19497" data-name="Path 19497" d="M625.175,86.148h14.1a3.679,3.679,0,0,1,3.755,3.726s-2.689,10.981-2.72,14.663c-.018,2.019.636,8.051.636,8.051H623.51s.8-6.3.787-8.418c-.028-3.6-2.877-14.3-2.877-14.3A3.68,3.68,0,0,1,625.175,86.148Z" transform="translate(-621.418 -86.148)" fill="#62c1c5"/>
        </g>
      </g>
      <g id="Group_4253" data-name="Group 4253" transform="translate(16.152 5.982)">
        <g id="Group_4252" data-name="Group 4252">
          <path id="Path_19498" data-name="Path 19498" d="M634.759,88.575a1.617,1.617,0,0,1-1.755,1.4c-1.728-.082-1.854-1.4-1.854-1.4V81.709h3.609Z" transform="translate(-631.15 -81.709)" fill="#f7d7c2"/>
        </g>
      </g>
      <g id="Group_4255" data-name="Group 4255" transform="translate(13.5 1.225)">
        <g id="Group_4254" data-name="Group 4254">
          <path id="Path_19499" data-name="Path 19499" d="M637.2,81.025c0,2.461-1.995,6.126-4.455,6.126s-4.457-3.665-4.457-6.126a4.456,4.456,0,0,1,8.911,0Z" transform="translate(-628.285 -76.569)" fill="#f7d7c2"/>
        </g>
      </g>
      <g id="Group_4257" data-name="Group 4257" transform="translate(6.143 23.944)">
        <g id="Group_4256" data-name="Group 4256">
          <rect id="Rectangle_940" data-name="Rectangle 940" width="23.627" height="14.086" fill="#2a2873"/>
        </g>
      </g>
      <g id="Group_4259" data-name="Group 4259" transform="translate(15.783 28.573)">
        <g id="Group_4258" data-name="Group 4258">
          <path id="Path_19500" data-name="Path 19500" d="M635.1,108.289a2.173,2.173,0,1,1-2.172-2.172A2.172,2.172,0,0,1,635.1,108.289Z" transform="translate(-630.752 -106.117)" fill="#0c5c9b"/>
        </g>
      </g>
      <g id="Group_4261" data-name="Group 4261" transform="translate(11.296 45.545)">
        <g id="Group_4260" data-name="Group 4260">
          <path id="Path_19501" data-name="Path 19501" d="M630.983,124.454a5.939,5.939,0,0,1-1.648.914c-1.265.533-3.768,1.523-3.393,2.614.5,1.468,2.269,1.361,3.439,1.009a22.529,22.529,0,0,0,5.176-2.551Z" transform="translate(-625.903 -124.454)" fill="#b7c9f3"/>
        </g>
      </g>
      <g id="Group_4263" data-name="Group 4263" transform="translate(16.456 32.723)">
        <g id="Group_4262" data-name="Group 4262">
          <path id="Path_19502" data-name="Path 19502" d="M634.431,119.593c4.289-3.13,6.531-5.444,11.345-8.37,1.145-.7,1.931-.9,3.918-.124,1.692.663,1.511,3.575.587,4.789-2.77,3.641-13.444,8.67-15.6,9.43-.93.329-4.22-2.442-2.885-3.767A24.7,24.7,0,0,1,634.431,119.593Z" transform="translate(-631.478 -110.6)" fill="#188a8d"/>
        </g>
      </g>
      <g id="Group_4265" data-name="Group 4265" transform="translate(17.429 44.426)">
        <g id="Group_4264" data-name="Group 4264" transform="translate(0)">
          <path id="Path_19503" data-name="Path 19503" d="M632.53,126.566a14.348,14.348,0,0,0,2.262,2.323c1.454,1.124,2.456,1.495,3.637.947,1.712-.794.138-2.476-1.192-3.806a18.689,18.689,0,0,0-3.377-2.785Z" transform="translate(-632.53 -123.245)" fill="#b7c9f3"/>
        </g>
      </g>
      <g id="Group_4267" data-name="Group 4267" transform="translate(13.153)">
        <g id="Group_4266" data-name="Group 4266">
          <path id="Path_19504" data-name="Path 19504" d="M628.341,81.793a16.83,16.83,0,0,0,2.018-3.531c.489-1.467.779.093,2.889,1.7a21.434,21.434,0,0,0,3.882,1.881s.635-2.788-.352-4.219c-2.338-3.393-7.121-3.171-8.574.794A4.008,4.008,0,0,0,628.341,81.793Z" transform="translate(-627.91 -75.246)" fill="#2a2873"/>
        </g>
      </g>
      <g id="Group_4269" data-name="Group 4269" transform="translate(15.099 43.634)">
        <g id="Group_4268" data-name="Group 4268" transform="translate(0)">
          <path id="Path_19505" data-name="Path 19505" d="M632.56,122.389l1.832,1.513a4.371,4.371,0,0,1,.955,1.114c.6,1.115-1.464,3.376-2.8,2.046s-2.532-2.763-2.532-2.763Z" transform="translate(-630.012 -122.389)" fill="#ffadae"/>
        </g>
      </g>
      <g id="Group_4271" data-name="Group 4271" transform="translate(0 32.578)">
        <g id="Group_4270" data-name="Group 4270">
          <path id="Path_19506" data-name="Path 19506" d="M625.891,123.889c-4.988-2.509-8.042-3.412-11.246-7.927a5.361,5.361,0,0,1-.827-3.991c.391-1.157,2.079-1.849,4.066-1.375,1.669.4,12.868,9.172,14.616,10.825.753.713-1.543,4.276-3.424,3.663A18.7,18.7,0,0,1,625.891,123.889Z" transform="translate(-613.699 -110.444)" fill="#188a8d"/>
        </g>
      </g>
    </g>
    <g id="Group_4288" data-name="Group 4288" transform="translate(43.439 75.698)">
      <g id="Group_4274" data-name="Group 4274">
        <g id="Group_4273" data-name="Group 4273">
          <path id="Path_19507" data-name="Path 19507" d="M653.477,133.443H605.138v14.614h48.339c1.911,0,3.461-2.244,3.461-5.011v-4.593C656.937,135.687,655.388,133.443,653.477,133.443Z" transform="translate(-605.138 -133.443)" fill="#80fb72"/>
        </g>
      </g>
      <g id="Group_4287" data-name="Group 4287" transform="translate(0.047 1.693)">
        <path id="Path_19508" data-name="Path 19508" d="M652.9,135.272H605.189V146.5H652.9C654.372,146.5,654.372,135.272,652.9,135.272Z" transform="translate(-605.189 -135.272)" fill="#fff"/>
        <g id="Group_4286" data-name="Group 4286" clip-path="url(#clip-path-2)">
          <g id="Group_4285" data-name="Group 4285" transform="translate(-0.721 1.335)">
            <g id="Group_4276" data-name="Group 4276">
              <g id="Group_4275" data-name="Group 4275">
                <rect id="Rectangle_941" data-name="Rectangle 941" width="50.647" height="0.59" fill="#b3e3ef"/>
              </g>
            </g>
            <g id="Group_4278" data-name="Group 4278" transform="translate(0 1.966)">
              <g id="Group_4277" data-name="Group 4277">
                <rect id="Rectangle_942" data-name="Rectangle 942" width="50.647" height="0.59" fill="#b3e3ef"/>
              </g>
            </g>
            <g id="Group_4280" data-name="Group 4280" transform="translate(0 3.933)">
              <g id="Group_4279" data-name="Group 4279">
                <rect id="Rectangle_943" data-name="Rectangle 943" width="50.647" height="0.59" fill="#b3e3ef"/>
              </g>
            </g>
            <g id="Group_4282" data-name="Group 4282" transform="translate(0 5.899)">
              <g id="Group_4281" data-name="Group 4281">
                <rect id="Rectangle_944" data-name="Rectangle 944" width="50.647" height="0.59" fill="#b3e3ef"/>
              </g>
            </g>
            <g id="Group_4284" data-name="Group 4284" transform="translate(0 7.865)">
              <g id="Group_4283" data-name="Group 4283">
                <rect id="Rectangle_945" data-name="Rectangle 945" width="50.647" height="0.59" fill="#b3e3ef"/>
              </g>
            </g>
          </g>
        </g>
      </g>
    </g>
    <g id="Group_4298" data-name="Group 4298" transform="translate(46.475 19.547) rotate(-19)">
      <g id="Group_4297" data-name="Group 4297" transform="translate(0 0)">
        <path id="Path_19513" data-name="Path 19513" d="M1.216.108A7.868,7.868,0,0,1,2.448,1.756,7.856,7.856,0,0,1,.405,1.512a.811.811,0,0,1,.81-1.4Z" transform="translate(0)" fill="#b3e3ef"/>
      </g>
    </g>
  </g>
</svg>
