<svg xmlns="http://www.w3.org/2000/svg" width="123.956" height="111.307" viewBox="0 0 123.956 111.307">
  <g id="Group_7046" data-name="Group 7046" transform="translate(-15.485 -1807.5)">
    <g id="Group_6990" data-name="Group 6990" transform="translate(15.484 1824.877)">
      <g id="Group_6462" data-name="Group 6462" transform="translate(0)">
        <path id="Path_20633" data-name="Path 20633" d="M1659.608,1192c0,6.448-2.309,11.723-5.129,11.723h-79.891l-12.617-30.253s-2.874-47.476-2.884-47.641c.034.557,53.52-.006,58.482-.007,2.184,0,6.619-.639,8.282.866,1.8,1.629,2.077,5.506,2.663,7.719q1.336,5.054,2.578,10.132c1.952,7.986,3.452,16.056,5.27,24.063,1.07,4.715,3.175,11.673,9.13,11.673h4.9a11.275,11.275,0,0,0,1.667.121h3.149c1.12.368,2.126,1.57,2.893,3.323A21.3,21.3,0,0,1,1659.608,1192Z" transform="translate(-1552.84 -1125.689)" fill="#f7a60f" fill-rule="evenodd"/>
        <g id="Group_6458" data-name="Group 6458" transform="translate(19.746 74.199)">
          <path id="Path_20634" data-name="Path 20634" d="M1995.606,1653.1l6.388-11.633c6.2,11.4,6.376,11.663,6.506,11.858a3.065,3.065,0,0,0,5.149-3.326c-.135-.23-1.011-1.791-6.573-12.019a5.78,5.78,0,0,0-5.068-3.021H2002a5.783,5.783,0,0,0-5.07,3l-6.693,12.19a3.065,3.065,0,1,0,5.374,2.951Zm18.034-3.114-.04-.061C2013.61,1649.937,2013.624,1649.957,2013.64,1649.984Z" transform="translate(-1989.854 -1634.958)" fill="#3d3d6b"/>
        </g>
        <g id="Group_6459" data-name="Group 6459" transform="translate(19.745 74.199)">
          <path id="Path_20635" data-name="Path 20635" d="M2079.765,1635.032a5.783,5.783,0,0,0-4.144,2.925l-6.693,12.189a3.065,3.065,0,0,0,1.761,4.4,3.065,3.065,0,0,1-3.611-4.4l6.693-12.189a5.783,5.783,0,0,1,5.07-3h.012A5.726,5.726,0,0,1,2079.765,1635.032Z" transform="translate(-2066.698 -1634.957)" fill="#32325b"/>
        </g>
        <g id="Group_6460" data-name="Group 6460" transform="translate(80.366 74.199)">
          <path id="Path_20636" data-name="Path 20636" d="M1579.528,1653.1l6.388-11.633c6.2,11.4,6.376,11.663,6.506,11.858a3.065,3.065,0,0,0,5.149-3.326c-.135-.23-1.011-1.791-6.573-12.019a5.779,5.779,0,0,0-5.068-3.021h-.012a5.782,5.782,0,0,0-5.07,3l-6.693,12.19a3.065,3.065,0,1,0,5.373,2.951Zm18.034-3.114-.04-.061C1597.531,1649.937,1597.545,1649.957,1597.562,1649.984Z" transform="translate(-1573.775 -1634.958)" fill="#3d3d6b"/>
        </g>
        <g id="Group_6461" data-name="Group 6461" transform="translate(80.366 74.199)">
          <path id="Path_20637" data-name="Path 20637" d="M1663.686,1635.032a5.781,5.781,0,0,0-4.144,2.925l-6.693,12.189a3.066,3.066,0,0,0,1.761,4.4,3.065,3.065,0,0,1-3.611-4.4l6.693-12.189a5.784,5.784,0,0,1,5.07-3h.012A5.733,5.733,0,0,1,1663.686,1635.032Z" transform="translate(-1650.62 -1634.957)" fill="#32325b"/>
        </g>
        <path id="Path_20638" data-name="Path 20638" d="M1566.856,1513.235c0,6.463-3.26,11.749-7.242,11.749H1474.1v-23.447h86.187a6.656,6.656,0,0,1,4.443,3.4A16.047,16.047,0,0,1,1566.856,1513.235Z" transform="translate(-1447.705 -1446.777)" fill="#e4980c" fill-rule="evenodd"/>
        <path id="Path_20639" data-name="Path 20639" d="M1972.088,1181.18H1959.4c-9.218,0-12.281-10.341-15.05-21.4l-6.674-26.652c-3.332-13.306-13.685-4.095-11.3,8.242,0,0,6.891,36.291,8.584,44.4,3.33,15.936,8.324,18.908,10.323,18.908h26.8c3.984,0,7.242-5.287,7.242-11.749h0c0-6.463-3.259-11.75-7.242-11.75Z" transform="translate(-1926.023 -1126.471)" fill="#fdd246" fill-rule="evenodd"/>
      </g>
      <path id="Path_20640" data-name="Path 20640" d="M1489.34,1272.808a4.727,4.727,0,0,0,1.095,1.01H1524.4a6.1,6.1,0,0,1,3.79,2.446l.442-.036a.886.886,0,0,0,.778-1.137c-1.824-6.086-11.417-36.872-19.507-39.233-7.912-2.311-17.835.521-20.083,1.228-.3.1-.468.153-.468.153s-2.545-1.229-4.049,2.4S1484.27,1266.127,1489.34,1272.808Z" transform="translate(-1411.823 -1219.046)" fill="#9794d3"/>
    </g>
    <g id="Group_6989" data-name="Group 6989" transform="translate(36.234 1807.5)">
      <path id="Path_20679" data-name="Path 20679" d="M1948.326,1466.374a19.468,19.468,0,0,1-2.574,1.019s-.955-2.607-.2-4.394S1948.326,1466.374,1948.326,1466.374Z" transform="translate(-1918.57 -1396.155)" fill="#7979b2"/>
      <path id="Path_20680" data-name="Path 20680" d="M1780.151,1379.76s4.721,6.415,12.219,5.469,14.426-5.611,15.89-13.562-16.1-8.917-19.633-6.8S1780.151,1379.76,1780.151,1379.76Z" transform="translate(-1754.536 -1311.815)" fill="#188a8d"/>
      <path id="Path_20681" data-name="Path 20681" d="M1979.663,1010.044s-1.273-1.061-5.663.328-7.034,4.612-8.61,11.04-.62,15.478-.634,19.447.251,12.221,4.3,14.337,17.114-12.591,20.166-18.668,2.5-13.591,1.051-18.651S1983.222,1007.635,1979.663,1010.044Z" transform="translate(-1964.482 -1008.996)" fill="#3d3c3b"/>
      <path id="Path_20682" data-name="Path 20682" d="M1996.8,1145.523s1.257,7.035,4.044,8.345-5.4,2.17-7.964,2.433-2.551-11.233-1.23-11.647S1996.8,1145.523,1996.8,1145.523Z" transform="translate(-1978.291 -1124.443)" fill="#3d3c3b"/>
      <path id="Path_20683" data-name="Path 20683" d="M2009.971,1034.033s1.142,6.619.121,10.577c-1.048,4.063-5.633,5.545-6.613,4.807a32.029,32.029,0,0,0,1.05,3.411l2.292,1.942s1.225,2.93-4.02,4.3-7.9-1.127-8.176-1.891a2.041,2.041,0,0,1,.225-1.579s3.629-3.209.838-8.74a45.318,45.318,0,0,1-3.523-8.545l1.322-3.395,5.817-4.75,5.161-1.955,2.128,1.1Z" transform="translate(-1987.595 -1025.036)" fill="#f8bd8c"/>
      <path id="Path_20684" data-name="Path 20684" d="M1903.552,1200.768c1.282.507,4.852-.3,3.686-2.6a.19.19,0,0,1,.214-.273c.972.247,3.348.872,5.177,1.522,2.356.838,5.519,2.231,7.137,7.683,1.528,5.147,7.065,12.264,7.68,13.046a.19.19,0,0,1,.036.159l-1.618,7.223a.189.189,0,0,1-.1.126l-1.168.62-.026.016c-.267.2-4.891,3.852-7.155,12.8a.19.19,0,0,1-.329.077l-3.343-3.969a.189.189,0,0,0-.317.041,7.26,7.26,0,0,1-2.119,2.818c-1.306.824-2.32.284-4.527-1.377s-9.115-9.675-12.253-18.556-1.306-13.835-1.131-15.027c.367-2.5,5.28-6.633,6.855-6.928a.189.189,0,0,1,.2.1A6.067,6.067,0,0,0,1903.552,1200.768Z" transform="translate(-1890.074 -1169.99)" fill="#62c1c5"/>
      <path id="Path_20685" data-name="Path 20685" d="M1946.619,1236.516c-1.769-2.9-4.266-3.247-5.737-5.282a31.771,31.771,0,0,0,2.882,1.708,8.711,8.711,0,0,1,3.322,3.205Z" transform="translate(-1916.693 -1198.479)" fill="#188a8d"/>
      <path id="Path_20686" data-name="Path 20686" d="M1867.363,1215.473s.688,1.766,2.231,1.367,12.412-21.082,12.412-21.082-8.622,2.34-9.6,3.972C1871.4,1201.4,1867.18,1215.112,1867.363,1215.473Z" transform="translate(-1840.901 -1168.171)" fill="#97bc5c"/>
      <path id="Path_20687" data-name="Path 20687" d="M1863.91,1223.429l5.181-14.73a.976.976,0,0,1,.52-.566l6.8-3.055a.975.975,0,0,1,1.363,1.042l-2.542,16.066a.976.976,0,0,1-.789.807l-9.435,1.719A.976.976,0,0,1,1863.91,1223.429Z" transform="translate(-1836.168 -1176.059)" fill="#759e3e"/>
      <path id="Path_20688" data-name="Path 20688" d="M1891.966,1285.743c-.008-.022-.018-.042-.027-.063a3.676,3.676,0,0,0,.491-.9c.731-2.241.022-2.591-.03-3.92s1.13-2.788,1.07-3.8-.193-2.136.3-2.145,1,1.181,1.078,2.254-.2,2.822,3.006.108.17,6-1.448,8.584c-.445.71-1.219,1.864-2.163,3.213A7.734,7.734,0,0,1,1891.966,1285.743Z" transform="translate(-1861.743 -1235.796)" fill="#f8bd8c"/>
      <path id="Path_20689" data-name="Path 20689" d="M1786.02,1253.548a122.876,122.876,0,0,0-2.943,25.818l19.092-3.315-1.691-9.01-3.138-11.43Z" transform="translate(-1748.784 -1217.542)" fill="#188a8d"/>
      <path id="Path_20690" data-name="Path 20690" d="M1526.137,1213.727s4.93-5.151,10.332-5.587,9.491,5.248,12.574,9.452,14.1,19.771,14.1,19.771l-5.048,4.486s-6.08-8.406-10.752-11.016c-4.69-2.62-10.731-10.213-10.731-10.213s-5.235,9.346-7.436,11.875S1526.137,1213.727,1526.137,1213.727Z" transform="translate(-1472.326 -1178.729)" fill="#f4ba8e"/>
      <path id="Path_20691" data-name="Path 20691" d="M1441.121,1393.816a8.323,8.323,0,0,1,2.325,3.13c.772,1.923,1.059,2.826.662,4.344s.4,4.386,4.127,5.6,5.457,4.047,6.883,5.9,3.834,2.892,5.243,1.065-2.941-8.323-6.353-13.551c-3.539-5.422-7.832-11.552-7.832-11.552Z" transform="translate(-1357.428 -1333.042)" fill="#137174"/>
      <path id="Path_20692" data-name="Path 20692" d="M1808.8,1227.655l.063.011,1.344-6.174-.759-.616C1809.9,1223.282,1809.07,1224.811,1808.8,1227.655Z" transform="translate(-1760.575 -1189.63)" fill="#efb284"/>
      <path id="Path_20693" data-name="Path 20693" d="M1757.345,1157.624a21.1,21.1,0,0,0,.2,5.18,124.35,124.35,0,0,0,3.755,15.513l6.495.656c-1.079-3.068.949-25.394-.922-33.14s-8.282-8.337-12.435-5.015-6.8,11.348-6.8,11.348l-.872,3.515,10.582,1.945c.266-2.845,1.1-4.374.648-6.78l.759.617-1.344,6.174Z" transform="translate(-1709.116 -1119.598)" fill="#f8bd8c"/>
      <path id="Path_20694" data-name="Path 20694" d="M1676.876,1408.938a36.076,36.076,0,0,0,3.248,9.086c2.113,3.6,4.655,6.4,6.75,7.518s1.884,2.663-1.375,3.794-5.49.542-7.978-2.746-3.4-2.784-5.458-3.775c-1.943-.936-2.579-2.667-2-6.575.7-4.674,1-6.469.62-7.926Z" transform="translate(-1618.359 -1349.758)" fill="#137174"/>
      <path id="Path_20695" data-name="Path 20695" d="M1978.726,1036.109c0-.009,0-.017,0-.026.156-1.512.318-3.022.473-4.534.071-.691.177-1.39.22-2.078a2.273,2.273,0,0,1,.425-1.627,2.344,2.344,0,0,1,.557-.38q5.391-2.957,10.9-5.7a2.418,2.418,0,0,1,.778-.281,2.445,2.445,0,0,1,1.08.205l2.121.75c1.885.667,2.94,2.333,3.725,4.125a33.093,33.093,0,0,1,1.4,4.391c.18.644.845,2.577-.084,2.971-.517.219-1.268-.634-1.535-.932-2.641-2.943-5.327-6.553-6.32-7.871-.86,2.3-3.562,8.4-8.257,9.268-.676,1.151-.992,2.226-.322,3.144,1.325,1.814,4.714,10.889,1.949,14.5-.848,1.109-3.262.157-5.24.289C1978.013,1052.5,1978.7,1036.615,1978.726,1036.109Z" transform="translate(-1975.908 -1019.284)" fill="#3d3c3b"/>
      <ellipse id="Ellipse_327" data-name="Ellipse 327" cx="1.578" cy="1.578" rx="1.578" ry="1.578" transform="translate(6.348 18.345) rotate(-98.569)" fill="#f8bd8c"/>
      <ellipse id="Ellipse_328" data-name="Ellipse 328" cx="1.578" cy="1.578" rx="1.578" ry="1.578" transform="translate(22.842 17.45) rotate(-143.903)" fill="#f8bd8c"/>
      <path id="Path_20696" data-name="Path 20696" d="M1992.932,1092.242c.01.027.985-.113,1.082-.12a3.718,3.718,0,0,1,1.726.141,2.2,2.2,0,0,1,.615.428,2.305,2.305,0,0,0,.589.485.637.637,0,0,0-.09-.212,5.109,5.109,0,0,0-.694-1.041,2.744,2.744,0,0,0-1.684-.659c-.561-.044-1.862.14-1.544.978Z" transform="translate(-1974.126 -1078.897)" fill="#3d3c3b"/>
      <path id="Path_20697" data-name="Path 20697" d="M2053.855,1093.45c-.011.03-1.335-.068-1.466-.071a5.932,5.932,0,0,0-2.3.254,2.791,2.791,0,0,0-.776.507,2.8,2.8,0,0,1-.733.568.594.594,0,0,1,.095-.239,5.231,5.231,0,0,1,.809-1.187,3.939,3.939,0,0,1,2.183-.823c.747-.081,2.514.048,2.186.99Z" transform="translate(-2039.194 -1079.907)" fill="#3d3c3b"/>
      <path id="Path_20698" data-name="Path 20698" d="M2006.092,1105.016a.779.779,0,0,1,.083-.229.334.334,0,0,1,.051-.072.587.587,0,0,1,.043-.044.439.439,0,0,1,.057-.038.488.488,0,0,1,.106-.042.3.3,0,0,1,.073-.013.629.629,0,0,1,.136-.013.523.523,0,0,1,.128.017.469.469,0,0,1,.227.137.69.69,0,0,1,.078.105.787.787,0,0,1,.059.132.937.937,0,0,1,.045.272,1.136,1.136,0,0,1-.028.284.9.9,0,0,1-.1.254.56.56,0,0,1-.166.185.459.459,0,0,1-.114.06.56.56,0,0,1-.076.023.587.587,0,0,1-.1.01.433.433,0,0,1-.241-.067.682.682,0,0,1-.056-.041.553.553,0,0,1-.054-.056.46.46,0,0,1-.06-.085,1.037,1.037,0,0,1-.117-.516,1.307,1.307,0,0,1,.028-.265Z" transform="translate(-1986.28 -1090.265)" fill="#3d3c3b"/>
      <path id="Path_20699" data-name="Path 20699" d="M2052.854,1106.493a.827.827,0,0,0-.085-.229.4.4,0,0,0-.052-.072.563.563,0,0,0-.043-.044.4.4,0,0,0-.058-.038.463.463,0,0,0-.107-.041.3.3,0,0,0-.073-.013.619.619,0,0,0-.136-.012.522.522,0,0,0-.127.018.462.462,0,0,0-.224.138.6.6,0,0,0-.077.105.741.741,0,0,0-.057.133.979.979,0,0,0-.043.273,1.162,1.162,0,0,0,.032.284.909.909,0,0,0,.1.253.56.56,0,0,0,.168.184.467.467,0,0,0,.115.059.648.648,0,0,0,.077.022.6.6,0,0,0,.1.009.424.424,0,0,0,.24-.069.5.5,0,0,0,.056-.041.561.561,0,0,0,.053-.056.486.486,0,0,0,.058-.085,1.042,1.042,0,0,0,.113-.517,1.3,1.3,0,0,0-.031-.264Z" transform="translate(-2038.648 -1091.53)" fill="#3d3c3b"/>
      <g id="Group_6473" data-name="Group 6473" transform="translate(17.012 16.25)">
        <path id="Path_20700" data-name="Path 20700" d="M2025.694,1120.512l-.521,0a.109.109,0,1,1,0-.218l.521,0a.271.271,0,0,0,.26-.339,15.351,15.351,0,0,1-.358-1.88.109.109,0,0,1,.216-.027,15.128,15.128,0,0,0,.353,1.853.489.489,0,0,1-.469.611Z" transform="translate(-2025.063 -1117.953)" fill="#3d3c3b"/>
      </g>
      <g id="Group_6474" data-name="Group 6474" transform="translate(14.919 20.933)">
        <path id="Path_20701" data-name="Path 20701" d="M2028.955,1150.969c.132,0,.216,0,.232,0a.146.146,0,1,0-.014-.291,5.181,5.181,0,0,1-2.645-.553.146.146,0,0,0-.172.235A4.935,4.935,0,0,0,2028.955,1150.969Z" transform="translate(-2026.295 -1150.093)" fill="#3d3c3b"/>
      </g>
      <path id="Path_20702" data-name="Path 20702" d="M1744.133,1389.3a3.816,3.816,0,0,1-3.662-.662c-.617-.71-1.213.612-.731,2.28a7.931,7.931,0,0,1-.009,3.6c-.044.654.225.918,1.873,1.179a11.573,11.573,0,0,0,5.071-.688c1.136-.437,1.773-.4,1.515-2.157s-.451-4.669-1.231-5.241c-.472-.345-1.061,1.182-2.824,1.685Z" transform="translate(-1688.521 -1332.03)" fill="#188a8d"/>
      <path id="Path_20703" data-name="Path 20703" d="M1530.045,1366.67a1.573,1.573,0,0,1,1.813.876c.807,1.25,1.261,2.7,2.019,3.854s1.487,1.021-.082,2.709-4.686,4.8-6.207,2.479c-1.24-1.893-4.671-4.365-4.18-5.567,1.314-.689,5.2-.556,6.636-4.351Z" transform="translate(-1443.502 -1314.138)" fill="#188a8d"/>
      <path id="Path_20704" data-name="Path 20704" d="M2057.388,1009.318a6.141,6.141,0,0,0-2.252-.726,8.56,8.56,0,0,0-2.329.052,11.555,11.555,0,0,0-1.5.341,13.441,13.441,0,0,0-2.812,1.2,11.7,11.7,0,0,0-5.3,7.21,22.64,22.64,0,0,0-.823,5.973.155.155,0,0,0,.311.007,22.27,22.27,0,0,1,.894-5.865,12.621,12.621,0,0,1,2.866-5.089,9.446,9.446,0,0,1,2.308-1.772,12.856,12.856,0,0,1,2.715-1.1,10.98,10.98,0,0,1,1.427-.3,7.931,7.931,0,0,1,2.156-.012,5.484,5.484,0,0,1,1.994.679.345.345,0,1,0,.349-.594Z" transform="translate(-2041.973 -1008.228)" fill="#3d3c3b"/>
      <path id="Path_20705" data-name="Path 20705" d="M1968.877,1007.8a2.455,2.455,0,0,1,1.748-.97,5.007,5.007,0,0,1,2.119.237,7.2,7.2,0,0,1,2.75,1.719,10.955,10.955,0,0,1,.75.805,16.982,16.982,0,0,1,2.326,3.754,12.725,12.725,0,0,1,1.178,4.25.073.073,0,0,0,.145-.01,12.884,12.884,0,0,0-1.125-4.328,17.2,17.2,0,0,0-2.3-3.849,11.213,11.213,0,0,0-.757-.84,7.532,7.532,0,0,0-2.851-1.842,5.39,5.39,0,0,0-2.278-.287,2.858,2.858,0,0,0-2.051,1.111.215.215,0,0,0,.345.258l0,0Z" transform="translate(-1953.521 -1006.418)" fill="#3d3c3b"/>
      <path id="Path_20706" data-name="Path 20706" d="M2038.929,1044.625a6.422,6.422,0,0,1-.383,2.34,6.961,6.961,0,0,1-1.209,2.074,15.006,15.006,0,0,1-1.76,1.718c-.627.541-1.271,1.072-1.86,1.664a.073.073,0,0,0,.1.105c.61-.557,1.273-1.052,1.928-1.564a15.256,15.256,0,0,0,1.881-1.669,7.406,7.406,0,0,0,1.39-2.143,7,7,0,0,0,.538-2.523.314.314,0,0,0-.627-.018S2038.929,1044.621,2038.929,1044.625Z" transform="translate(-2022.686 -1038.785)" fill="#3d3c3b"/>
      <path id="Path_20707" data-name="Path 20707" d="M2069.506,1131.064a21.156,21.156,0,0,1,2.151,3.527,16.35,16.35,0,0,1,1.311,3.913,11.315,11.315,0,0,1,.063,4.111,9.241,9.241,0,0,1-1.555,3.808.073.073,0,0,0,.117.086,9.451,9.451,0,0,0,1.7-3.845,11.654,11.654,0,0,0,.054-4.228,16.793,16.793,0,0,0-1.229-4.055,21.737,21.737,0,0,0-2.1-3.684.314.314,0,0,0-.513.36Z" transform="translate(-2061.852 -1112.476)" fill="#3d3c3b"/>
    </g>
  </g>
</svg>
